<svg xmlns:xlink="http://www.w3.org/1999/xlink" xmlns="http://www.w3.org/2000/svg" viewBox="0 0 350.00000000000006 189.54842892355447" preserveAspectRatio="xMidYMid meet" class="" id="gcfddhgc" style="overflow: visible;" width="350.00000000000006"  height="189.54842892355447" ><defs id="SvgjsDefs1157"></defs><g id="SvgjsG1158" featurekey="symbolFeature-0" transform="matrix(0.2632513295617568,0,0,0.2632513295617568,108.09395797094328,-0.15663119074650142)" fill="#D3D6DB"><title xmlns="http://www.w3.org/2000/svg" fill="#D3D6DB">Laughing-Emoji-Emotion-Face-Expression-Feeling_1</title><path xmlns="http://www.w3.org/2000/svg" d="M256,111.73c-80.82,0-146.58,65.75-146.58,146.57S175.18,404.88,256,404.88,402.58,339.12,402.58,258.3,336.82,111.73,256,111.73Zm0,273.15A126.58,126.58,0,1,1,382.58,258.3,126.73,126.73,0,0,1,256,384.88Z" fill="#D3D6DB"></path><path xmlns="http://www.w3.org/2000/svg" d="M476.64,77.15C449.5,32,407,6.76,350.25,2.12,300-2,248.52,2.27,201.42,14.42c-50.74,13.09-95.07,35.22-128.19,64C52,96.83,35.15,118.06,23.11,141.52c-12.9,25.13-20.34,53-22.1,82.74-2.89,49-3,106.18,18.27,159.14C47.22,453,104.77,494.69,190.33,507.27a378,378,0,0,0,55,4.13,323.32,323.32,0,0,0,70.44-7.56c42.32-9.45,79-27.36,108.91-53.23C452,427.07,473.12,397.25,487.61,362,503.13,324.18,511,280,511,230.55,511,166.69,499.44,115.08,476.64,77.15Zm-7.53,277.23c-13.29,32.34-32.63,59.63-57.49,81.1-27.42,23.68-61.13,40.11-100.2,48.84-36.3,8.1-77.17,9.2-118.18,3.17-42.36-6.24-77.39-20.17-104.13-41.41C66.58,428.18,49.34,404.59,37.84,376,18.06,326.65,18.22,272.2,21,225.44c3.11-52.58,25.1-97,65.37-131.94,30.79-26.74,72.31-47.39,120.06-59.71A428.64,428.64,0,0,1,312.79,20.6c12,0,23.93.48,35.83,1.46,49.94,4.08,87.25,26.08,110.88,65.4,20.9,34.77,31.5,82.91,31.5,143.09C491,277.34,483.63,319,469.11,354.38Z" fill="#D3D6DB"></path><circle xmlns="http://www.w3.org/2000/svg" cx="180.93" cy="247.24" r="19.29" fill="#D3D6DB"></circle><circle xmlns="http://www.w3.org/2000/svg" cx="331.07" cy="247.24" r="19.29" fill="#D3D6DB"></circle><path xmlns="http://www.w3.org/2000/svg" d="M300.89,266H211.11a10,10,0,0,0-10,10,54.89,54.89,0,0,0,109.78,0A10,10,0,0,0,300.89,266ZM256,310.92a35,35,0,0,1-24.69-10.26,47.92,47.92,0,0,1,49.38,0A35,35,0,0,1,256,310.92Z" fill="#D3D6DB"></path></g><g id="SvgjsG1159" featurekey="fiAKjI-0" transform="matrix(2.492877330320701,0,0,2.492877330320701,-0.747863674574827,138.99287970771377)" fill="#EFF0F4"><path d="M7.48 20 l-3.1 0 l0 -10.86 l-4.08 0 l0 -2.84 l11.26 0 l0 2.84 l-4.08 0 l0 10.86 z M21.6 20 l0 -5.36 l-5.8 0 l0 5.36 l-3.1 0 l0 -13.7 l3.1 0 l0 5.5 l5.8 0 l0 -5.5 l3.1 0 l0 13.7 l-3.1 0 z M26.38 20 l0 -13.7 l10.02 0 l0 2.8 l-6.92 0 l0 2.58 l6.4 0 l0 2.72 l-6.4 0 l0 2.8 l6.94 0 l0 2.8 l-10.04 0 z M50.9 15.14 l-6.06 0 l0 4.86 l-3.1 0 l0 -13.7 l9.68 0 l0 2.84 l-6.58 0 l0 3.28 l6.06 0 l0 2.72 z M52.78 20 l0 -13.7 l3.1 0 l0 10.86 l6.36 0 l0 2.84 l-9.46 0 z M66.76 20 l-3.1 0 l0 -13.7 l3.1 0 l0 13.7 z M74.03999999999999 16.18 l-2.52 0 l0 3.82 l-3.1 0 l0 -13.7 l5.9 0 c3.12 0 4.88 2.18 4.88 4.84 c0 2.8 -1.94 5.04 -5.16 5.04 z M73.86 9.14 l-2.34 0 l0 4.2 l2.44 0 c1.32 0 2.12 -0.88 2.12 -2.12 s-0.78 -2.08 -2.22 -2.08 z M98.48 13.120000000000001 c0 4.1 -2.84 7.16 -6.94 7.16 c-4.34 0 -7.38 -3.18 -7.38 -7.14 c0 -3.9 2.94 -7.12 7.38 -7.12 c2.56 0 4.54 1.04 5.78 2.82 l-2.28 1.94 c-0.92 -1.16 -2.06 -1.86 -3.5 -1.86 c-2.38 0 -4.22 1.76 -4.22 4.3 c0 2.4 1.72 4.18 4.14 4.18 c1.84 0 3.04 -0.92 3.56 -2.38 l-3.64 0 l0 -2.7 l7.1 0 l0 0.8 z M107.5 14.9 l-1.78 -5.36 l-1.78 5.36 l3.56 0 z M109.2 20 l-0.78 -2.36 l-5.38 0 l-0.78 2.36 l-3.18 0 l4.84 -13.7 l3.8 0 l4.82 13.7 l-3.34 0 z M120.18 20 l-3.7 -8.18 l0 8.18 l-2.98 0 l0 -13.7 l3.72 0 l4.02 9.06 l4.02 -9.06 l3.72 0 l0 13.7 l-3.04 0 l0 -8.22 l-3.72 8.22 l-2.04 0 z M130.66000000000003 20 l0 -13.7 l10.02 0 l0 2.8 l-6.92 0 l0 2.58 l6.4 0 l0 2.72 l-6.4 0 l0 2.8 l6.94 0 l0 2.8 l-10.04 0 z" fill="#EFF0F4"></path></g></svg>